<?xml version="1.0" encoding="utf-8"?>
<!-- Generator: Adobe Illustrator 24.3.0, SVG Export Plug-In . SVG Version: 6.00 Build 0)  -->
<svg version="1.1" id="a1b0a4cf-944a-4145-95be-ec0eea83b7fc"
	 xmlns="http://www.w3.org/2000/svg" xmlns:xlink="http://www.w3.org/1999/xlink" x="0px" y="0px" viewBox="0 0 633 557.5"
	 style="enable-background:new 0 0 633 557.5;" xml:space="preserve">
<style type="text/css">
	.st0{opacity:0.1;fill:#F9A826;}
	.st1{fill:#F9A826;}
	.st2{fill:#FFB8B8;}
	.st3{fill:#2F2E41;}
	.st4{fill:#575A89;}
	.st5{fill:#3F3D56;}
	.st6{fill:#E6E6E6;}
</style>
<path class="st0" d="M491.1,421.1c25-91.1,17.4-192.8-14.8-270.9l-336.9,68.1l322.9-98.2C326.2-127.6,61.4,36.7,86.9,349.5
	L491.1,421.1z"/>
<rect x="76.8" y="320.4" class="st1" width="429.2" height="195.1"/>
<path class="st2" d="M251.5,296.7c5.6,4.4,7.7,5.8,8.9,5.6c58,16.9,7.2,36.7-21,3.1L251.5,296.7z"/>
<polygon class="st2" points="60.1,475.1 60.1,514.7 88.6,513.2 80.7,471.9 "/>
<polygon class="st2" points="218.7,475.1 218.7,514.7 190.2,513.2 198.1,471.9 "/>
<path class="st3" d="M131.5,270.5l42.8-1.6c98.8,103.6,61.4,79.9,58.7,222.1l-52.3-15.9l11.1-98.3c0,0,2.9-2,0.5-2
	c-15.2,5.2-26.3-59.4-59.2-51.9c-37.4-1.8-43.5,53.8-58.7,53.9l11.1,98.3L33.1,491C27.3,334.8-1.4,370.1,91.8,268.9L131.5,270.5z"/>
<path class="st3" d="M68,502.1c0,0-6.3-12.7-14.3-6.3s-27,25.4-27,25.4s-46,20.6-17.4,33.3C37.9,567.1,61.7,537,61.7,537
	c27.2-5.7,42.9-9.3,28.5-39C82,501.5,70.4,505.6,68,502.1z"/>
<path class="st3" d="M210.8,502.1c0,0,6.3-12.7,14.3-6.3s27,25.4,27,25.4s46,20.6,17.4,33.3c-28.6,12.7-52.3-17.4-52.3-17.4
	c-27.2-5.7-42.9-9.3-28.5-39C196.9,501.5,208.4,505.6,210.8,502.1z"/>
<path class="st2" d="M174.3,91.2c-2.4,39.5-56.2,36-57.1,0C119.6,51.8,173.4,55.2,174.3,91.2z"/>
<path class="st2" d="M133.1,111.9c13.9,41.9-18.9,19.1,27,52.3l17.4-34.9c0,0-12.7-4.8-11.1-22.2L133.1,111.9z"/>
<path class="st4" d="M218.7,135.7l-47.3-10.8c1.3,28.5-29.1,22.8-34.4,8.4l-45.2,26.2c19,70.7,14.2,73.6-11.1,119
	c-9.6,8.8,4.8,13.9,17.3,9c9.6-5.9,14.4-11.2,24.7-9.8c48.5,10.1,88.8,12.5,95.2,8.5C220.3,282.9,217.9,136.2,218.7,135.7z"/>
<path class="st4" d="M206,138.8c1.6,0,9.8-3.8,9.8-3.8c23.8-0.4,39.7,159.5,41,164l-15.9,11.1l-25.4-65L206,138.8z"/>
<path class="st2" d="M95,324.4c0.8,6,2.2,73.2,26.3,41.8c3.2-22.9-7.6-29.7-10.4-45L95,324.4z"/>
<path class="st4" d="M101.3,159.5l-4.9-2.7c-13-0.4-8.9,34.1-14.4,59.3c-4.5,29.4-3.2,61.9,2.1,105.2c0.5,15.9,29,5.9,33.1,4.7
	c0,0-9.5-65-4.8-76.1S101.3,159.5,101.3,159.5z"/>
<path class="st3" d="M173.1,63.6c-4.4-7.2-11.3-12.4-19.4-14.8l-5.9,4.7l2.3-5.5c-1.9-0.3-3.9-0.4-5.8-0.3l-5.3,6.8l2.2-6.6
	c-22.8,2.5-36.4,28.7-24.5,47c1.8-5.6,4.1-10.9,5.9-16.5c1.4,0.2,2.9,0.2,4.3,0l2.2-5.2l0.6,5c6.9-0.6,17.1-1.9,23.7-3.1l-0.6-3.8
	l3.8,3.2c2-0.5,3.2-0.9,3.1-1.2c4.9,7.8,9.7,12.9,14.6,20.7C176,82.9,179.3,73.7,173.1,63.6z"/>
<circle class="st5" cx="454.3" cy="482.5" r="37.1"/>
<circle class="st6" cx="461.1" cy="482.5" r="16.4"/>
<polygon class="st5" points="430.9,508.4 511.8,542.1 509.3,550.1 462.7,544.9 384,509.9 427.8,515 "/>
<path class="st5" d="M502.4,540.6L603,210.7l24.5-43.5l0.1-0.4c0.1-0.4,1.9-9.5-2.5-16.1c-2.3-3.3-5.8-5.5-9.7-6.1
	c-13.5-2.5-43.8-3.8-45-3.8l-0.2,0l-0.2,0c-0.8,0.1-20.2,2.9-24.5,19.8l-21,38.3l-0.1,0.3L429,512.1l5.2,1.6L529.3,201l21.1-38.4
	l0.1-0.4c3.1-12.7,17.9-15.7,19.8-16c3.1,0.1,31.5,1.4,44,3.7c2.5,0.3,4.7,1.7,6.2,3.8c2.7,4,2,10,1.8,11.5l-24.3,43.2l-0.1,0.3
	L497.2,539L502.4,540.6z"/>
<rect x="550.2" y="202.9" transform="matrix(0.1777 -0.9841 0.9841 0.1777 218.7076 741.3176)" class="st5" width="5.5" height="73.8"/>
<rect x="536.3" y="248.6" transform="matrix(0.2 -0.9798 0.9798 0.2 151.6567 756.4932)" class="st5" width="5.5" height="73.6"/>
<rect x="511.1" y="331.6" transform="matrix(0.2751 -0.9614 0.9614 0.2751 18.5269 760.9214)" class="st5" width="5.5" height="73.2"/>
<polygon class="st5" points="527,510.8 529,505.7 460.7,478.9 457.3,442.6 521.1,466.4 541.8,496.3 546.3,493.2 524.6,461.9 
	451.1,434.4 455.5,482.8 "/>
<circle class="st5" cx="550.8" cy="517.9" r="37.1"/>
<circle class="st6" cx="560.4" cy="519.6" r="16.4"/>
</svg>
